<?xml version="1.0" encoding="utf-8"?>
<svg viewBox="112.976 116.317 63.006 21.134" xmlns="http://www.w3.org/2000/svg" xmlns:bx="https://boxy-svg.com">
  <path fill="#000000" d="M 131.77 124.356 C 130.785 124.356 130.015 125.418 130.015 126.774 C 130.015 128.131 130.785 129.193 131.77 129.193 C 132.754 129.193 133.524 128.131 133.524 126.774 C 133.524 125.418 132.754 124.356 131.77 124.356 Z M 131.77 128.245 C 131.389 128.245 130.963 127.616 130.963 126.775 C 130.963 125.933 131.389 125.304 131.77 125.304 C 132.15 125.304 132.576 125.933 132.576 126.775 C 132.576 127.616 132.15 128.245 131.77 128.245 Z M 133.845 116.616 C 129.995 116.616 126.862 121.233 126.862 126.908 C 126.862 132.583 129.995 137.2 133.845 137.2 C 137.696 137.2 140.829 132.583 140.829 126.908 C 140.829 121.233 137.696 116.616 133.845 116.616 Z M 133.845 135.873 C 131.24 135.873 129.041 133.064 128.388 129.257 L 130.489 129.257 C 128.023 126.411 130.489 124.198 130.489 124.198 L 128.455 124.198 C 129.182 120.576 131.323 117.944 133.845 117.944 C 136.964 117.944 139.501 121.966 139.501 126.908 C 139.501 131.851 136.964 135.873 133.845 135.873 Z M 127.526 132.608 C 127.526 132.608 125.696 131.092 122.647 130.838 C 122.647 130.838 120.627 130.386 120.624 126.727 C 120.622 124.198 122.078 122.617 122.837 122.617 C 123.596 122.617 125.727 122.262 127.525 120.62 C 127.525 120.62 124.076 126.908 127.526 132.608 Z M 124.418 131.849 C 124.075 132.347 123.09 132.608 123.09 132.608 L 123.153 134.948 C 122.9 135.391 120.796 135.602 120.623 134.948 C 120.089 132.922 119.675 132.292 119.675 132.292 C 116.803 131.383 115.564 126.348 117.398 123.249 C 120.181 119.644 124.074 121.921 124.074 121.921 C 124.074 121.921 120.366 121.542 120.113 126.158 C 119.924 132.735 124.418 131.849 124.418 131.849 Z M 117.043 130.569 C 116.64 130.498 114.861 130.023 114.647 126.727 C 114.434 123.43 117.327 122.553 117.327 122.553 C 117.327 122.553 116.047 124.379 115.928 126.395 C 115.81 128.411 117.043 130.569 117.043 130.569 Z"/>
  <path d="M 174.19 127.871 L 174.19 127.835 C 174.19 127.826 174.146 127.826 174.146 127.826 C 174.146 127.818 174.102 127.818 174.102 127.809 L 174.058 127.8 C 174.014 127.8 174.014 127.791 173.969 127.791 L 173.793 127.791 C 173.042 127.791 172.424 127.729 171.895 127.641 C 172.027 127.632 170.658 127.331 170.394 127.225 C 170.526 127.243 170.144 127.102 170.144 127.128 L 169.775 126.969 L 169.378 126.81 C 169.511 126.819 169.069 126.686 169.069 126.713 C 168.584 126.527 168.01 126.359 167.347 126.244 C 167.392 126.217 166.641 126.138 166.597 126.146 C 166.332 126.12 166.067 126.103 165.802 126.094 C 165.802 126.085 164.875 126.076 164.875 126.094 C 164.257 126.103 162.8 126.288 162.8 126.323 C 162.182 126.447 160.549 126.96 160.725 126.96 C 160.593 127.004 160.505 127.048 160.372 127.093 C 160.24 127.121 159.931 127.102 159.931 127.102 C 159.666 127.084 159.357 127.066 159.048 127.057 C 159.048 127.048 157.723 127.004 157.458 126.995 L 156.576 126.987 C 156.222 126.978 155.913 126.978 155.516 126.969 C 155.56 126.969 154.722 126.951 154.324 126.951 L 153.794 126.951 C 153.706 126.907 153.618 126.854 153.529 126.81 C 153.662 126.854 153.441 126.73 153.441 126.765 C 153.22 126.651 153.044 126.544 152.823 126.429 C 152.911 126.429 148.276 124.343 145.671 124.343 C 139.049 124.343 134.635 127.72 134.458 127.871 L 134.458 127.915 C 134.458 127.924 134.458 127.924 134.502 127.932 C 134.502 127.941 134.546 127.941 134.546 127.95 L 134.59 127.959 L 134.635 127.968 C 134.679 127.968 134.679 127.977 134.723 127.977 L 134.988 127.977 C 134.988 127.986 135.032 127.994 135.032 128.003 L 135.164 127.977 L 135.959 127.977 C 135.915 127.986 136.665 127.977 136.621 127.977 C 137.681 127.968 139.719 127.922 140.285 127.897 C 140.859 127.871 142.184 127.8 142.228 127.791 C 143.331 127.72 146.598 127.42 147.128 127.376 C 147.755 127.304 147.967 127.446 147.967 127.438 C 148.188 127.535 150.086 128.277 150.13 128.26 C 150.704 128.437 151.322 128.587 151.984 128.684 C 152.091 128.701 153.176 128.817 153.441 128.825 C 153.756 128.849 153.807 128.861 154.324 128.843 C 154.898 128.834 155.428 128.799 155.913 128.737 L 155.958 128.737 C 158.032 129.789 160.151 130.585 162.756 130.585 C 169.466 130.585 173.793 128.039 173.969 127.932 L 173.969 127.915 C 174.19 127.88 174.19 127.871 174.19 127.871 Z M 165.14 126.226 C 166.994 126.226 167.966 126.615 168.981 127.031 C 169.643 127.305 170.349 127.588 171.365 127.765 C 167.436 127.712 165.361 127.517 163.33 127.331 C 162.624 127.27 161.917 127.199 161.123 127.146 C 162.315 126.659 163.595 126.226 165.14 126.226 Z M 154.324 127.093 C 156.752 127.093 158.474 127.155 159.931 127.243 C 159.842 127.27 159.798 127.305 159.71 127.331 C 158.739 127.747 157.723 128.163 156.531 128.41 C 155.869 128.074 155.251 127.72 154.633 127.384 C 154.457 127.287 154.28 127.19 154.103 127.084 C 154.192 127.093 154.236 127.093 154.324 127.093 Z M 138.299 126.173 C 140.727 125.077 143.288 124.493 145.671 124.493 C 148.188 124.493 150.66 125.696 152.867 126.925 C 150.969 126.942 149.556 127.004 148.32 127.084 C 146.952 126.527 145.583 126.049 143.508 126.049 C 141.124 126.049 140.021 126.5 138.961 126.942 C 138.034 127.331 137.151 127.703 135.429 127.765 C 135.826 127.508 136.842 126.836 138.299 126.173 Z M 137.372 127.765 C 138.431 127.579 139.138 127.287 139.756 127.022 C 140.727 126.615 141.654 126.226 143.508 126.226 C 145.053 126.226 146.289 126.659 147.481 127.146 C 146.687 127.208 145.98 127.27 145.274 127.34 C 143.288 127.517 141.212 127.712 137.372 127.765 Z M 148.938 127.331 C 148.85 127.305 148.806 127.27 148.717 127.243 C 149.909 127.164 151.366 127.11 153.22 127.102 C 153.441 127.216 153.662 127.34 153.839 127.455 C 154.501 127.826 155.163 128.198 155.825 128.543 C 155.339 128.613 154.854 128.649 154.324 128.649 C 152.073 128.64 150.483 127.977 148.938 127.331 Z M 162.977 130.382 C 162.234 130.382 161.502 130.282 160.78 130.11 C 159.445 129.792 158.146 129.227 156.885 128.596 C 158.297 128.331 159.401 127.871 160.505 127.42 L 160.77 127.314 C 161.564 127.376 162.27 127.438 162.977 127.499 C 165.361 127.72 167.877 127.95 173.175 127.968 C 172.248 128.445 168.319 130.382 162.977 130.382 Z" style="stroke-width: 15; fill: rgb(206, 31, 31);" transform="matrix(-1, 0, 0, -1, 308.64799, 254.928016)"/>
  <path d="M 173.008 126.912 L 173.008 126.876 C 173.008 126.867 172.964 126.867 172.964 126.867 C 172.964 126.859 172.92 126.859 172.92 126.85 L 172.876 126.841 C 172.832 126.841 172.832 126.832 172.787 126.832 L 172.611 126.832 C 171.86 126.832 171.242 126.77 170.713 126.682 C 170.845 126.673 169.476 126.372 169.212 126.266 C 169.344 126.284 168.962 126.143 168.962 126.169 L 168.593 126.01 L 168.196 125.851 C 168.329 125.86 167.887 125.727 167.887 125.754 C 167.402 125.568 166.828 125.4 166.165 125.285 C 166.21 125.258 165.459 125.179 165.415 125.187 C 165.15 125.161 164.885 125.144 164.62 125.135 C 164.62 125.126 163.693 125.117 163.693 125.135 C 163.075 125.144 161.618 125.329 161.618 125.364 C 161 125.488 159.367 126.001 159.543 126.001 C 159.411 126.045 159.323 126.089 159.19 126.134 C 159.058 126.162 158.749 126.143 158.749 126.143 C 158.484 126.125 158.175 126.107 157.866 126.098 C 157.866 126.089 156.541 126.045 156.276 126.036 L 155.394 126.028 C 155.04 126.019 154.731 126.019 154.334 126.01 C 154.378 126.01 153.54 125.992 153.142 125.992 L 152.612 125.992 C 152.524 125.948 152.436 125.895 152.347 125.851 C 152.48 125.895 152.259 125.771 152.259 125.806 C 152.038 125.692 151.862 125.585 151.641 125.47 C 151.729 125.47 147.094 123.384 144.489 123.384 C 137.867 123.384 133.453 126.761 133.276 126.912 L 133.276 126.956 C 133.276 126.965 133.276 126.965 133.32 126.973 C 133.32 126.982 133.364 126.982 133.364 126.991 L 133.408 127 L 133.453 127.009 C 133.497 127.009 133.497 127.018 133.541 127.018 L 133.806 127.018 C 133.806 127.027 133.85 127.035 133.85 127.044 L 133.982 127.018 L 134.777 127.018 C 134.733 127.027 135.483 127.018 135.439 127.018 C 136.499 127.009 138.537 126.963 139.103 126.938 C 139.677 126.912 141.002 126.841 141.046 126.832 C 142.149 126.761 145.416 126.461 145.946 126.417 C 146.573 126.345 146.785 126.487 146.785 126.479 C 147.006 126.576 148.904 127.318 148.948 127.301 C 149.522 127.478 150.14 127.628 150.802 127.725 C 150.909 127.742 151.994 127.858 152.259 127.866 C 152.574 127.89 152.625 127.902 153.142 127.884 C 153.716 127.875 154.246 127.84 154.731 127.778 L 154.776 127.778 C 156.85 128.83 158.969 129.626 161.574 129.626 C 168.284 129.626 172.611 127.08 172.787 126.973 L 172.787 126.956 C 173.008 126.921 173.008 126.912 173.008 126.912 Z M 163.958 125.267 C 165.812 125.267 166.784 125.656 167.799 126.072 C 168.461 126.346 169.167 126.629 170.183 126.806 C 166.254 126.753 164.179 126.558 162.148 126.372 C 161.442 126.311 160.735 126.24 159.941 126.187 C 161.133 125.7 162.413 125.267 163.958 125.267 Z M 153.142 126.134 C 155.57 126.134 157.292 126.196 158.749 126.284 C 158.66 126.311 158.616 126.346 158.528 126.372 C 157.557 126.788 156.541 127.204 155.349 127.451 C 154.687 127.115 154.069 126.761 153.451 126.425 C 153.275 126.328 153.098 126.231 152.921 126.125 C 153.01 126.134 153.054 126.134 153.142 126.134 Z M 137.117 125.214 C 139.545 124.118 142.106 123.534 144.489 123.534 C 147.006 123.534 149.478 124.737 151.685 125.966 C 149.787 125.983 148.374 126.045 147.138 126.125 C 145.77 125.568 144.401 125.09 142.326 125.09 C 139.942 125.09 138.839 125.541 137.779 125.983 C 136.852 126.372 135.969 126.744 134.247 126.806 C 134.644 126.549 135.66 125.877 137.117 125.214 Z M 136.19 126.806 C 137.249 126.62 137.956 126.328 138.574 126.063 C 139.545 125.656 140.472 125.267 142.326 125.267 C 143.871 125.267 145.107 125.7 146.299 126.187 C 145.505 126.249 144.798 126.311 144.092 126.381 C 142.106 126.558 140.03 126.753 136.19 126.806 Z M 147.756 126.372 C 147.668 126.346 147.624 126.311 147.535 126.284 C 148.727 126.205 150.184 126.151 152.038 126.143 C 152.259 126.257 152.48 126.381 152.657 126.496 C 153.319 126.867 153.981 127.239 154.643 127.584 C 154.157 127.654 153.672 127.69 153.142 127.69 C 150.891 127.681 149.301 127.018 147.756 126.372 Z M 161.795 129.423 C 161.052 129.423 160.32 129.323 159.598 129.151 C 158.263 128.833 156.964 128.268 155.703 127.637 C 157.115 127.372 158.219 126.912 159.323 126.461 L 159.588 126.355 C 160.382 126.417 161.088 126.479 161.795 126.54 C 164.179 126.761 166.695 126.991 171.993 127.009 C 171.066 127.486 167.137 129.423 161.795 129.423 Z" style="stroke-width: 15; fill: rgb(222, 222, 222);"/>
  <path d="M 173.054 126.974 L 173.054 127.01 C 173.054 127.019 173.011 127.019 173.011 127.019 C 173.011 127.027 172.967 127.027 172.967 127.036 L 172.923 127.045 C 172.878 127.045 172.878 127.054 172.833 127.054 L 172.657 127.054 C 171.906 127.054 171.289 127.116 170.76 127.204 C 170.891 127.213 169.523 127.514 169.259 127.62 C 169.39 127.602 169.009 127.743 169.009 127.717 L 168.639 127.876 L 168.243 128.035 C 168.375 128.026 167.933 128.159 167.933 128.132 C 167.448 128.318 166.874 128.486 166.211 128.601 C 166.257 128.628 165.506 128.707 165.461 128.699 C 165.196 128.725 164.931 128.742 164.666 128.751 C 164.666 128.76 163.74 128.769 163.74 128.751 C 163.122 128.742 161.665 128.557 161.665 128.522 C 161.047 128.398 159.414 127.885 159.59 127.885 C 159.457 127.841 159.37 127.797 159.236 127.752 C 159.105 127.724 158.796 127.743 158.796 127.743 C 158.531 127.761 158.221 127.779 157.913 127.788 C 157.913 127.797 156.588 127.841 156.323 127.85 L 155.441 127.858 C 155.087 127.867 154.777 127.867 154.381 127.876 C 154.425 127.876 153.587 127.894 153.189 127.894 L 152.659 127.894 C 152.57 127.938 152.483 127.991 152.394 128.035 C 152.526 127.991 152.305 128.115 152.305 128.08 C 152.084 128.194 151.909 128.301 151.688 128.416 C 151.776 128.416 147.14 130.502 144.536 130.502 C 137.914 130.502 133.499 127.125 133.323 126.974 L 133.323 126.93 C 133.323 126.921 133.323 126.921 133.367 126.913 C 133.367 126.904 133.411 126.904 133.411 126.895 L 133.455 126.886 L 133.499 126.877 C 133.543 126.877 133.543 126.868 133.588 126.868 L 133.853 126.868 C 133.853 126.859 133.897 126.851 133.897 126.842 L 134.028 126.868 L 134.824 126.868 C 134.779 126.859 135.529 126.868 135.485 126.868 C 136.546 126.877 138.583 126.923 139.15 126.948 C 139.723 126.974 141.049 127.045 141.093 127.054 C 142.195 127.125 145.463 127.425 145.993 127.469 C 146.62 127.541 146.832 127.399 146.832 127.407 C 147.053 127.31 148.951 126.568 148.995 126.585 C 149.568 126.408 150.187 126.258 150.848 126.161 C 150.956 126.144 152.04 126.028 152.305 126.02 C 152.621 125.996 152.672 125.984 153.189 126.002 C 153.762 126.011 154.292 126.046 154.777 126.108 L 154.823 126.108 C 156.897 125.056 159.015 124.26 161.621 124.26 C 168.331 124.26 172.657 126.806 172.833 126.913 L 172.833 126.93 C 173.054 126.965 173.054 126.974 173.054 126.974 Z M 164.004 128.619 C 165.859 128.619 166.831 128.23 167.845 127.814 C 168.508 127.54 169.213 127.257 170.23 127.08 C 166.301 127.133 164.225 127.328 162.194 127.514 C 161.489 127.575 160.782 127.646 159.987 127.699 C 161.179 128.186 162.459 128.619 164.004 128.619 Z M 153.189 127.752 C 155.617 127.752 157.339 127.69 158.796 127.602 C 158.707 127.575 158.663 127.54 158.575 127.514 C 157.604 127.098 156.588 126.682 155.396 126.435 C 154.734 126.771 154.116 127.125 153.498 127.461 C 153.322 127.558 153.145 127.655 152.968 127.761 C 153.056 127.752 153.101 127.752 153.189 127.752 Z M 137.164 128.672 C 139.592 129.768 142.152 130.352 144.536 130.352 C 147.053 130.352 149.525 129.149 151.732 127.92 C 149.833 127.903 148.421 127.841 147.185 127.761 C 145.817 128.318 144.448 128.796 142.373 128.796 C 139.989 128.796 138.886 128.345 137.826 127.903 C 136.899 127.514 136.015 127.142 134.293 127.08 C 134.691 127.337 135.707 128.009 137.164 128.672 Z M 136.236 127.08 C 137.296 127.266 138.003 127.558 138.621 127.823 C 139.592 128.23 140.519 128.619 142.373 128.619 C 143.917 128.619 145.153 128.186 146.345 127.699 C 145.552 127.637 144.845 127.575 144.138 127.505 C 142.152 127.328 140.077 127.133 136.236 127.08 Z M 147.803 127.514 C 147.715 127.54 147.671 127.575 147.582 127.602 C 148.774 127.681 150.231 127.735 152.084 127.743 C 152.305 127.629 152.526 127.505 152.704 127.39 C 153.366 127.019 154.027 126.647 154.69 126.302 C 154.204 126.232 153.719 126.196 153.189 126.196 C 150.938 126.205 149.347 126.868 147.803 127.514 Z M 161.842 124.463 C 161.098 124.463 160.367 124.563 159.645 124.735 C 158.31 125.053 157.011 125.618 155.749 126.249 C 157.162 126.514 158.265 126.974 159.37 127.425 L 159.635 127.531 C 160.429 127.469 161.135 127.407 161.842 127.346 C 164.225 127.125 166.741 126.895 172.04 126.877 C 171.112 126.4 167.183 124.463 161.842 124.463 Z" style="stroke-width: 15; fill: rgb(222, 222, 222);" bx:origin="0.568 0.731"/>
  <path d="M 168.741 123.297 L 168.741 123.333 C 168.741 123.342 168.697 123.342 168.697 123.342 C 168.697 123.35 168.653 123.35 168.653 123.359 L 168.609 123.368 C 168.565 123.368 168.565 123.377 168.52 123.377 L 168.344 123.377 C 167.593 123.377 166.975 123.439 166.446 123.527 C 166.578 123.536 165.209 123.837 164.945 123.943 C 165.077 123.925 164.695 124.066 164.695 124.04 L 164.326 124.199 L 163.929 124.358 C 164.062 124.349 163.62 124.482 163.62 124.455 C 163.135 124.641 162.561 124.809 161.898 124.924 C 161.943 124.951 161.192 125.03 161.148 125.022 C 160.883 125.048 160.618 125.065 160.353 125.074 C 160.353 125.083 159.426 125.092 159.426 125.074 C 158.808 125.065 157.351 124.88 157.351 124.845 C 156.733 124.721 155.1 124.208 155.276 124.208 C 155.144 124.164 155.056 124.12 154.923 124.075 C 154.791 124.047 154.482 124.066 154.482 124.066 C 154.217 124.084 153.908 124.102 153.599 124.111 C 153.599 124.12 152.274 124.164 152.009 124.173 L 151.127 124.181 C 150.773 124.19 150.464 124.19 150.067 124.199 C 150.111 124.199 149.273 124.217 148.875 124.217 L 148.345 124.217 C 148.257 124.261 148.169 124.314 148.08 124.358 C 148.213 124.314 147.992 124.438 147.992 124.403 C 147.771 124.517 147.595 124.624 147.374 124.739 C 147.462 124.739 142.827 126.825 140.222 126.825 C 133.6 126.825 129.186 123.448 129.009 123.297 L 129.009 123.253 C 129.009 123.244 129.009 123.244 129.053 123.236 C 129.053 123.227 129.097 123.227 129.097 123.218 L 129.141 123.209 L 129.186 123.2 C 129.23 123.2 129.23 123.191 129.274 123.191 L 129.539 123.191 C 129.539 123.182 129.583 123.174 129.583 123.165 L 129.715 123.191 L 130.51 123.191 C 130.466 123.182 131.216 123.191 131.172 123.191 C 132.232 123.2 134.27 123.246 134.836 123.271 C 135.41 123.297 136.735 123.368 136.779 123.377 C 137.882 123.448 141.149 123.748 141.679 123.792 C 142.306 123.864 142.518 123.722 142.518 123.73 C 142.739 123.633 144.637 122.891 144.681 122.908 C 145.255 122.731 145.873 122.581 146.535 122.484 C 146.642 122.467 147.727 122.351 147.992 122.343 C 148.307 122.319 148.358 122.307 148.875 122.325 C 149.449 122.334 149.979 122.369 150.464 122.431 L 150.509 122.431 C 152.583 121.379 154.702 120.583 157.307 120.583 C 164.017 120.583 168.344 123.129 168.52 123.236 L 168.52 123.253 C 168.741 123.288 168.741 123.297 168.741 123.297 Z M 159.691 124.942 C 161.545 124.942 162.517 124.553 163.532 124.137 C 164.194 123.863 164.9 123.58 165.916 123.403 C 161.987 123.456 159.912 123.651 157.881 123.837 C 157.175 123.898 156.468 123.969 155.674 124.022 C 156.866 124.509 158.146 124.942 159.691 124.942 Z M 148.875 124.075 C 151.303 124.075 153.025 124.013 154.482 123.925 C 154.393 123.898 154.349 123.863 154.261 123.837 C 153.29 123.421 152.274 123.005 151.082 122.758 C 150.42 123.094 149.802 123.448 149.184 123.784 C 149.008 123.881 148.831 123.978 148.654 124.084 C 148.743 124.075 148.787 124.075 148.875 124.075 Z M 132.85 124.995 C 135.278 126.091 137.839 126.675 140.222 126.675 C 142.739 126.675 145.211 125.472 147.418 124.243 C 145.52 124.226 144.107 124.164 142.871 124.084 C 141.503 124.641 140.134 125.119 138.059 125.119 C 135.675 125.119 134.572 124.668 133.512 124.226 C 132.585 123.837 131.702 123.465 129.98 123.403 C 130.377 123.66 131.393 124.332 132.85 124.995 Z M 131.923 123.403 C 132.982 123.589 133.689 123.881 134.307 124.146 C 135.278 124.553 136.205 124.942 138.059 124.942 C 139.604 124.942 140.84 124.509 142.032 124.022 C 141.238 123.96 140.531 123.898 139.825 123.828 C 137.839 123.651 135.763 123.456 131.923 123.403 Z M 143.489 123.837 C 143.401 123.863 143.357 123.898 143.268 123.925 C 144.46 124.004 145.917 124.058 147.771 124.066 C 147.992 123.952 148.213 123.828 148.39 123.713 C 149.052 123.342 149.714 122.97 150.376 122.625 C 149.89 122.555 149.405 122.519 148.875 122.519 C 146.624 122.528 145.034 123.191 143.489 123.837 Z M 157.528 120.786 C 156.785 120.786 156.053 120.886 155.331 121.058 C 153.996 121.376 152.697 121.941 151.436 122.572 C 152.848 122.837 153.952 123.297 155.056 123.748 L 155.321 123.854 C 156.115 123.792 156.821 123.73 157.528 123.669 C 159.912 123.448 162.428 123.218 167.726 123.2 C 166.799 122.723 162.87 120.786 157.528 120.786 Z" style="stroke-width: 15; fill: rgb(40, 65, 187);" transform="matrix(-1, 0, 0, -1, 303.153543, 250.291801)" bx:origin="0.568 0.731"/>
</svg>